<?xml version="1.0" encoding="UTF-8"?>
<svg id="Capa_1" xmlns="http://www.w3.org/2000/svg" version="1.1" viewBox="0 0 1500 390.43">
  <!-- Generator: Adobe Illustrator 29.3.1, SVG Export Plug-In . SVG Version: 2.1.0 Build 151)  -->
  <defs>
    <style>
      .st0 {
        fill: #2e4997;
      }

      .st1 {
        fill: #bb2f2b;
      }
    </style>
  </defs>
  <g>
    <path class="st0" d="M591.98,292.8h-44.15l-50.68-140.07-35.6,140.07h-41.14l50.13-197.19h46.3l49.15,137.66,34.99-137.66h41.14l-50.13,197.19Z"/>
    <path class="st0" d="M789.52,165.45c9.26,15.43,11.22,33.67,5.87,54.72-5.44,21.4-16.69,39.71-33.74,54.92-17.05,15.21-39.01,22.81-65.85,22.81s-44.94-7.6-54.26-22.81c-9.32-15.2-11.26-33.51-5.82-54.92,5.35-21.05,16.58-39.29,33.69-54.72,17.11-15.43,39.09-23.14,65.94-23.14s44.91,7.72,54.17,23.14ZM727.01,174.54c-11.95,0-22.14,3.95-30.6,11.84-8.46,7.89-14.54,19.15-18.26,33.78-3.72,14.63-3.36,25.91,1.07,33.84,4.43,7.94,12.62,11.91,24.56,11.91s22.12-3.97,30.55-11.91c8.42-7.93,14.49-19.22,18.21-33.84,3.72-14.63,3.38-25.89-1.02-33.78-4.4-7.89-12.57-11.84-24.51-11.84Z"/>
    <path class="st0" d="M900.96,182.17c-16.44,0-28.74,5-36.92,14.98-4.58,5.62-8.36,14.27-11.33,25.95l-17.72,69.7h-41.14l37.07-145.82h38.99l-6.46,25.42c8.78-9.72,15.96-16.36,21.55-19.93,9.16-5.97,19.86-8.96,32.09-8.96.76,0,1.4.02,1.92.07.51.05,1.67.11,3.46.2l-9.93,39.06c-2.51-.27-4.76-.45-6.74-.54-1.98-.09-3.6-.13-4.84-.13Z"/>
    <path class="st0" d="M1051.87,292.8h-49.31l-21.56-62.34-21.1,16.45-11.66,45.89h-40.13l49.96-196.52h40.13l-27,106.22,64.83-54.85h50.6l-68.79,55.79,34.04,89.37Z"/>
    <path class="st0" d="M1241.68,162.64c9.42,12.58,11.03,31.04,4.84,55.39-6.53,25.69-17.69,45.26-33.49,58.73-15.8,13.47-33.44,20.2-52.94,20.2-12.42,0-22.01-2.9-28.75-8.7-3.68-3.21-6.88-7.89-9.61-14.05l-19.32,75.99h-40.42l51.66-203.22h39.13l-5.47,21.54c6-6.33,11.95-11.32,17.86-14.98,10.73-6.51,22.36-9.77,34.87-9.77,18.25,0,32.13,6.29,41.65,18.86ZM1203.9,219.9c2.86-11.24,2.63-21.18-.66-29.83-3.3-8.65-11.11-12.98-23.43-12.98-14.81,0-26.66,6.56-35.53,19.67-4.63,6.96-8.31,15.79-11.03,26.49-4.31,16.95-2.51,28.85,5.4,35.72,4.71,4.01,10.99,6.02,18.82,6.02,11.37,0,21.08-4.1,29.15-12.31,8.05-8.2,13.82-19.13,17.29-32.77Z"/>
    <path class="st0" d="M1296.15,95.61h40.85l-50.13,197.19h-40.85l50.13-197.19Z"/>
    <path class="st0" d="M1396.98,254.54l59.59-107.56h43.43l-90.06,143.41c-17.35,27.65-29.88,44.8-37.59,51.44-7.71,6.64-20.59,9.96-38.65,9.96-3.63,0-6.54-.02-8.73-.06-2.19-.05-5.44-.2-9.77-.47l7.75-30.5,5.09.27c3.97.18,7.82.04,11.57-.4,3.75-.45,7.06-1.47,9.96-3.08,2.77-1.52,5.8-4.68,9.08-9.5,3.28-4.82,4.86-7.76,4.75-8.83l-18.63-152.24h45.44l6.78,107.56Z"/>
  </g>
  <path class="st0" d="M213,5.43C179.86-.81,149.1-3.48,149.1-3.48c0,0-22.23,36.62-67.33,54.73C37.39,69.08,5.86,71.84,5.86,71.84l-1.24,11.44c-.33,3.08-7.93,76.49,14.13,167.22,4.27,17.56,10.73,33.57,18.69,48.11l16.53-50.44c-.55-1.95-1.23-3.81-1.71-5.81-15.69-64.52-15.26-120.61-14.14-143.89,0,0,39.14-9.32,63.23-20.52,37.18-17.29,58.75-44.3,58.75-44.3-.49-.09,11-1.73,58.56,6.92,31.16,5.67,57.46,13.49,57.63,13.77l.31-34.16s-33.99-9.16-63.61-14.73Z"/>
  <path class="st1" d="M209.67,318.73c-17.95,16.34-37.81,28.06-55.82,35.09-16.75-6.54-38.38-17.15-56.06-31.75l-43.57.18c27.91,33.13,63.99,55.89,94.02,66.24l5.62,1.94,5.62-1.94c31.34-10.8,68.55-34.14,96.96-69.76h-46.76Z"/>
  <path class="st0" d="M308.93,74.14l-1.24-11.44-11.04-3.24c-.41-.12-6.39-1.87-20.72-5.73,0,0,11.38,106.93-23.63,206.14l-85.3-148.55h-35.38l-67.38,181.96h34.66l51.76-141.06,82.52,141.06h40.8c8.94-15.54,16.17-32.82,20.82-51.92,22.06-90.74,14.47-164.14,14.13-167.22Z"/>
</svg>